<?xml version="1.0" encoding="UTF-8"?>
<svg xmlns="http://www.w3.org/2000/svg" xmlns:xlink="http://www.w3.org/1999/xlink" width="500pt" height="325pt" viewBox="0 0 500 325" version="1.1">
<defs>
<filter id="alpha" filterUnits="objectBoundingBox" x="0%" y="0%" width="100%" height="100%">
  <feColorMatrix type="matrix" in="SourceGraphic" values="0 0 0 0 1 0 0 0 0 1 0 0 0 0 1 0 0 0 1 0"/>
</filter>
<mask id="mask0">
  <g filter="url(#alpha)">
<rect x="0" y="0" width="500" height="325" style="fill:rgb(0%,0%,0%);fill-opacity:0.2;stroke:none;"/>
  </g>
</mask>
<clipPath id="clip1">
  <rect x="0" y="0" width="500" height="325"/>
</clipPath>
<g id="surface5" clip-path="url(#clip1)">
<path style=" stroke:none;fill-rule:nonzero;fill:rgb(0%,0%,0%);fill-opacity:1;" d="M 304.972656 43.5 C 305.925781 43.5 305.925781 43.5 306.882812 43.5 C 309.75 44.121094 313.574219 44.742188 317.398438 45.363281 C 328.871094 47.847656 336.519531 50.335938 342.257812 52.820312 C 338.433594 50.957031 334.609375 49.089844 329.828125 47.226562 C 302.101562 36.664062 269.597656 36.664062 249.523438 36.664062 C 229.445312 36.664062 196.941406 36.664062 169.214844 47.226562 C 164.4375 49.089844 160.613281 50.957031 156.789062 52.820312 C 162.523438 50.335938 171.128906 47.847656 181.644531 45.363281 C 185.46875 44.742188 188.335938 44.121094 192.160156 43.5 C 193.117188 43.5 193.117188 43.5 194.074219 43.5 C 208.414062 41.011719 226.578125 39.769531 249.523438 39.769531 C 272.464844 39.148438 290.632812 41.011719 304.972656 43.5 Z M 304.972656 43.5 "/>
<path style=" stroke:none;fill-rule:nonzero;fill:rgb(0%,0%,0%);fill-opacity:1;" d="M 1.910156 301.386719 C 3.824219 300.765625 5.734375 300.144531 7.648438 299.523438 C 18.164062 296.414062 124.28125 267.828125 131.929688 265.34375 C 140.535156 262.238281 152.964844 257.265625 158.699219 247.324219 C 164.4375 236.757812 163.480469 236.136719 163.480469 233.03125 C 163.480469 229.921875 159.65625 219.359375 155.832031 206.308594 C 153.917969 205.066406 152.007812 203.824219 150.09375 202.582031 L 124.28125 202.582031 C 112.8125 202.582031 104.207031 196.988281 103.25 190.152344 C 84.128906 182.695312 71.703125 169.644531 71.703125 154.730469 C 71.703125 139.816406 84.128906 126.148438 103.25 119.3125 C 104.207031 116.203125 106.117188 113.097656 108.988281 111.234375 C 111.855469 78.296875 130.019531 55.304688 163.480469 42.878906 C 195.027344 31.070312 229.445312 31.070312 249.523438 31.070312 C 270.554688 31.070312 304.972656 31.070312 334.609375 42.257812 C 368.070312 54.683594 386.234375 77.675781 389.101562 110.613281 C 392.925781 113.097656 394.835938 115.582031 394.835938 118.691406 C 413.957031 126.148438 426.386719 139.195312 426.386719 154.109375 C 426.386719 169.023438 413.957031 182.695312 394.835938 189.53125 C 393.882812 196.367188 384.320312 201.960938 373.804688 201.960938 L 347.992188 201.960938 C 346.082031 203.203125 344.167969 204.445312 342.257812 205.6875 C 338.433594 218.738281 335.5625 229.300781 334.609375 232.410156 C 334.609375 235.515625 333.652344 236.136719 339.386719 246.703125 C 345.125 257.265625 358.507812 262.238281 366.15625 264.722656 C 374.761719 267.828125 479.921875 295.792969 490.441406 298.902344 C 492.351562 299.523438 495.21875 300.144531 496.175781 300.765625 C 496.175781 300.765625 497.132812 301.386719 498.089844 302.007812 L 498.089844 0 L 0 0 L 0 302.628906 C 0.957031 302.007812 1.910156 301.386719 1.910156 301.386719 Z M 1.910156 301.386719 "/>
<path style=" stroke:none;fill-rule:nonzero;fill:rgb(0%,0%,0%);fill-opacity:1;" d="M 372.847656 106.261719 L 373.804688 106.261719 C 375.71875 106.261719 377.628906 106.261719 379.542969 106.882812 C 377.628906 91.96875 371.894531 80.164062 364.246094 69.597656 C 370.9375 78.917969 376.671875 90.105469 373.804688 92.589844 C 372.847656 94.453125 372.847656 100.046875 372.847656 106.261719 Z M 372.847656 106.261719 "/>
<path style=" stroke:none;fill-rule:nonzero;fill:rgb(0%,0%,0%);fill-opacity:1;" d="M 119.503906 106.882812 C 121.414062 106.261719 123.328125 106.261719 125.238281 106.261719 L 126.195312 106.261719 C 126.195312 100.046875 126.195312 94.453125 125.238281 93.210938 C 123.328125 90.105469 128.105469 79.542969 134.800781 70.21875 C 127.152344 80.164062 122.371094 92.589844 119.503906 106.882812 Z M 119.503906 106.882812 "/>
</g>
</defs>
<g id="surface1">
<use xlink:href="#surface5" mask="url(#mask0)"/>
</g>
</svg>
